<svg version="1.1" id="Layer_1" xmlns="http://www.w3.org/2000/svg" xmlns:xlink="http://www.w3.org/1999/xlink" x="0px" y="0px"
	 width="100%" viewBox="0 0 1024 1024" enable-background="new 0 0 1024 1024" xml:space="preserve">
<path fill="#000000" opacity="1.000000" stroke="none" 
	d="
M437.614716,518.621826 
	C430.788361,525.965271 428.174103,534.351685 428.249390,543.992065 
	C428.447205,569.315796 428.538788,594.644714 428.250824,619.966797 
	C427.850006,655.214355 394.823456,688.021423 360.009399,688.391418 
	C355.325928,688.441162 353.464172,687.200195 353.626984,682.259766 
	C353.945160,672.606689 353.829559,662.933594 353.655151,653.273071 
	C353.589722,649.647278 354.518585,648.035339 358.524139,647.548889 
	C375.559387,645.479919 386.852509,632.506592 386.955933,615.119995 
	C387.094696,591.794800 387.033081,568.468384 387.096893,545.142639 
	C387.142456,528.482361 390.327972,512.675232 400.418976,498.938507 
	C415.769989,478.041382 436.695099,467.185669 462.414337,467.017548 
	C521.059753,466.634216 579.709595,466.913116 638.357605,466.947662 
	C643.617859,466.950745 644.178040,467.680237 643.114319,472.835663 
	C641.065247,482.766602 638.743835,492.647522 636.971741,502.626678 
	C636.165344,507.167938 634.143677,508.457581 629.651855,508.446228 
	C574.669617,508.307281 519.686890,508.380890 464.704285,508.338257 
	C454.454987,508.330322 445.323822,511.053802 437.614716,518.621826 
M418.927948,546.574219 
	C418.816437,537.638123 419.827148,528.884827 424.408478,521.016663 
	C433.297333,505.750488 447.165863,499.023468 464.364777,498.976532 
	C515.512085,498.836975 566.659973,498.914978 617.807678,498.904266 
	C619.973267,498.903809 622.138916,498.875977 624.304321,498.842529 
	C625.866455,498.818390 627.463867,498.600769 627.944031,496.842651 
	C629.673523,490.509186 631.276062,484.143036 631.971985,476.432007 
	C624.686523,476.432007 618.058289,476.434082 611.430115,476.431641 
	C561.948486,476.413483 512.466797,476.361603 462.985321,476.431488 
	C458.517761,476.437805 453.969147,476.825317 449.597534,477.718262 
	C417.394257,484.296021 396.346863,510.295502 396.331573,543.286743 
	C396.320679,566.778015 396.335144,590.269287 396.330383,613.760559 
	C396.326233,634.317322 386.265381,648.497986 366.839630,655.266174 
	C365.213043,655.832886 363.409088,656.263000 363.375977,658.297852 
	C363.269043,664.869934 363.336121,671.444885 363.336121,678.294067 
	C365.006470,678.182983 365.817474,678.177490 366.614471,678.069092 
	C395.690125,674.113342 418.520599,647.849304 418.850525,617.528687 
	C419.104309,594.206726 418.917664,570.880005 418.927948,546.574219 
z"/>
<path fill="#000000" opacity="1.000000" stroke="none" 
	d="
M387.022705,422.064728 
	C386.873108,382.157318 409.658997,353.439240 447.642731,345.258331 
	C452.033051,344.312775 456.494110,343.729980 461.011841,343.729401 
	C488.163361,343.725983 515.314880,343.704712 542.466431,343.708313 
	C543.921631,343.708496 545.376831,343.879486 546.723267,343.964142 
	C547.257568,345.993134 545.848511,346.175812 544.876038,346.668518 
	C529.633362,354.391205 518.157898,365.790771 511.251465,381.509277 
	C509.969910,384.425934 508.217682,385.390808 505.150726,385.364380 
	C491.159546,385.243713 477.166718,385.279083 463.174561,385.311127 
	C442.189545,385.359131 428.375000,399.131439 428.330841,420.037720 
	C428.301300,434.029846 428.303284,448.022186 428.338531,462.014282 
	C428.344696,464.466553 428.091522,466.383484 425.397949,467.661865 
	C410.225281,474.863159 398.366913,485.718231 390.099823,500.407684 
	C389.700256,501.117706 389.283234,501.875793 387.024414,502.108582 
	C387.024414,475.508514 387.024414,449.031525 387.022705,422.064728 
M431.926483,360.424805 
	C408.104797,373.405396 396.213623,393.429016 396.316956,420.588623 
	C396.379059,436.910706 396.315918,453.233307 396.380554,469.555359 
	C396.387421,471.287262 395.788422,473.191467 397.391998,475.163025 
	C402.886078,470.503052 408.373199,465.898376 414.730103,462.656799 
	C417.843658,461.069031 418.962494,459.059082 418.920624,455.609741 
	C418.774994,443.620087 418.766693,431.624207 418.980133,419.635620 
	C419.443329,393.620270 437.450165,375.953186 463.468719,375.825165 
	C473.461761,375.776001 483.482269,375.354553 493.439056,375.953735 
	C500.274384,376.365112 504.762665,374.653046 507.507202,368.045715 
	C509.286163,363.762939 512.806702,360.423462 515.848206,356.884796 
	C516.619690,355.987152 518.177063,355.364502 517.310303,353.273743 
	C499.617126,353.273743 481.809692,353.399292 464.005157,353.227570 
	C452.960876,353.121094 442.556427,355.478638 431.926483,360.424805 
z"/>
<path fill="#000000" opacity="1.000000" stroke="none" 
	d="
M533.296021,364.281891 
	C549.248352,349.772064 567.871643,343.637451 588.891296,343.733643 
	C615.546875,343.855621 642.203674,343.721191 668.859924,343.713898 
	C675.763977,343.712006 675.993835,344.083801 674.471924,350.840820 
	C672.390198,360.084167 670.062012,369.290466 668.482727,378.621490 
	C667.565613,384.040253 665.197571,385.488068 659.864197,385.426880 
	C635.210449,385.144012 610.551392,385.263855 585.894531,385.323395 
	C565.273315,385.373199 551.562073,400.017731 551.679871,420.636322 
	C551.743530,431.785156 551.524170,442.940491 551.941162,454.088593 
	C552.077576,457.734161 551.000854,459.572388 546.861755,459.496887 
	C543.072144,459.427795 541.890442,457.937714 541.997009,454.398132 
	C542.377869,441.747528 541.645142,429.084747 542.542603,416.433167 
	C544.222351,392.752075 561.663513,376.063232 585.427856,375.873260 
	C608.084412,375.692139 630.744385,375.654358 653.399902,375.867981 
	C658.049377,375.911835 659.991394,374.257111 660.634583,369.897766 
	C661.239868,365.795441 662.159485,361.723145 663.210938,357.708405 
	C664.001953,354.687714 663.283386,353.282806 660.008301,353.289825 
	C633.685730,353.346344 607.309631,352.305054 581.053467,353.638763 
	C545.030884,355.468597 519.240906,384.204895 519.358521,420.162170 
	C519.396667,431.823944 519.350403,443.486328 519.471069,455.147125 
	C519.500305,457.974304 518.864075,459.610260 515.622559,459.405640 
	C512.947876,459.236816 509.949280,459.788818 510.037720,455.678131 
	C510.399048,438.884460 508.993744,422.032166 511.481995,405.309448 
	C513.877258,389.211884 521.704590,375.926819 533.296021,364.281891 
z"/>
<path fill="#000000" opacity="1.000000" stroke="none" 
	d="
M551.400452,570.000122 
	C551.394836,586.485657 551.617371,602.475098 551.338257,618.455872 
	C550.673157,656.536255 519.401367,687.691345 481.370392,688.581055 
	C477.879822,688.662659 476.594940,687.599365 476.638672,684.104553 
	C476.769958,673.615601 476.738312,663.123535 476.654114,652.633606 
	C476.630157,649.647278 477.566284,648.145020 480.796082,647.714783 
	C499.719543,645.194519 510.453217,632.881653 510.540710,613.368164 
	C510.607086,598.554565 510.208313,583.739624 510.112976,568.924561 
	C510.016602,553.949890 510.022614,538.974426 510.016296,523.999329 
	C510.013184,516.681030 510.046600,516.676819 517.563171,516.672302 
	C527.221191,516.666443 536.881287,516.783813 546.536072,516.607788 
	C550.226074,516.540527 551.461304,517.888794 551.431885,521.543640 
	C551.303528,537.528198 551.391235,553.514404 551.400452,570.000122 
M519.292969,620.193787 
	C516.810425,637.819519 507.552917,649.916443 490.314301,655.290344 
	C487.208893,656.258423 486.056000,657.829407 486.208740,661.004395 
	C486.416473,665.322937 486.431763,669.667603 486.213135,673.985046 
	C485.995026,678.291931 487.662354,678.916809 491.629395,678.090088 
	C520.673218,672.037598 544.038025,646.541443 542.454712,609.910461 
	C542.096008,601.611938 541.914551,593.271790 542.306519,584.981812 
	C543.156372,567.009033 541.181213,549.044556 542.431030,531.078979 
	C542.665161,527.713562 541.082336,525.817505 537.339539,526.003296 
	C533.520020,526.192871 529.658081,526.315186 525.860718,525.966064 
	C520.904480,525.510193 519.225037,527.194458 519.262390,532.352539 
	C519.471924,561.318542 519.336365,590.287109 519.292969,620.193787 
z"/>
</svg>